<?xml version="1.0" encoding="UTF-8"?>
<!DOCTYPE svg PUBLIC "-//W3C//DTD SVG 1.1//EN" "http://www.w3.org/Graphics/SVG/1.1/DTD/svg11.dtd">
<!-- Creator: CorelDRAW 2019 (64-Bit) -->
<svg xmlns="http://www.w3.org/2000/svg" xml:space="preserve" width="8.29553in" height="2.32521in" version="1.1" style="shape-rendering:geometricPrecision; text-rendering:geometricPrecision; image-rendering:optimizeQuality; fill-rule:evenodd; clip-rule:evenodd"
viewBox="0 0 8297.33 2325.71"
 xmlns:xlink="http://www.w3.org/1999/xlink">
 <defs>
   <clipPath id="id0" style="clip-rule:nonzero">
    <path d="M726.58 1449.92l0 324.37c0,162.18 -71.36,220.57 -184.89,220.57 -113.53,0 -184.89,-58.39 -184.89,-220.57l0 -1226.11c0,-162.18 71.36,-223.82 184.89,-223.82 113.53,0 184.89,61.63 184.89,223.82l0 243.27 337.34 0 0 -220.57c0,-363.29 -181.65,-570.89 -531.97,-570.89 -350.32,0 -531.96,207.6 -531.96,570.89l0 1180.7c0,363.29 181.65,570.89 531.96,570.89 350.32,0 531.97,-207.6 531.97,-570.89l0 -301.66 -337.34 0z"/>
   </clipPath>
    <clipPath id="id1">
     <path d="M726.58 1449.92l0 324.37c0,162.18 -71.36,220.57 -184.89,220.57 -113.53,0 -184.89,-58.39 -184.89,-220.57l0 -1226.11c0,-162.18 71.36,-223.82 184.89,-223.82 113.53,0 184.89,61.63 184.89,223.82l0 243.27 337.34 0 0 -220.57c0,-363.29 -181.65,-570.89 -531.97,-570.89 -350.32,0 -531.96,207.6 -531.96,570.89l0 1180.7c0,363.29 181.65,570.89 531.96,570.89 350.32,0 531.97,-207.6 531.97,-570.89l0 -301.66 -337.34 0z"/>
    </clipPath>
    <clipPath id="id2">
     <path d="M726.58 1449.92l0 324.37c0,162.18 -71.36,220.57 -184.89,220.57 -113.53,0 -184.89,-58.39 -184.89,-220.57l0 -1226.11c0,-162.18 71.36,-223.82 184.89,-223.82 113.53,0 184.89,61.63 184.89,223.82l0 243.27 337.34 0 0 -220.57c0,-363.29 -181.65,-570.89 -531.97,-570.89 -350.32,0 -531.96,207.6 -531.96,570.89l0 1180.7c0,363.29 181.65,570.89 531.96,570.89 350.32,0 531.97,-207.6 531.97,-570.89l0 -301.66 -337.34 0z"/>
    </clipPath>
   <clipPath id="id3" style="clip-rule:nonzero">
    <path d="M1638.06 350.32l616.3 0 0 -324.37 -973.1 0 0 2270.58 973.1 0 0 -324.37 -616.3 0 0 -664.95 489.8 0 0 -324.37 -489.8 0 0 -632.52z"/>
   </clipPath>
    <clipPath id="id4">
     <path d="M1638.06 350.32l616.3 0 0 -324.37 -973.1 0 0 2270.58 973.1 0 0 -324.37 -616.3 0 0 -664.95 489.8 0 0 -324.37 -489.8 0 0 -632.52z"/>
    </clipPath>
    <clipPath id="id5">
     <path d="M1638.06 350.32l616.3 0 0 -324.37 -973.1 0 0 2270.58 973.1 0 0 -324.37 -616.3 0 0 -664.95 489.8 0 0 -324.37 -489.8 0 0 -632.52z"/>
    </clipPath>
   <clipPath id="id6" style="clip-rule:nonzero">
    <path d="M2831.73 350.32l616.3 0 0 -324.37 -973.1 0 0 2270.58 973.1 0 0 -324.37 -616.3 0 0 -664.95 489.8 0 0 -324.37 -489.8 0 0 -632.52z"/>
   </clipPath>
    <clipPath id="id7">
     <path d="M2831.73 350.32l616.3 0 0 -324.37 -973.1 0 0 2270.58 973.1 0 0 -324.37 -616.3 0 0 -664.95 489.8 0 0 -324.37 -489.8 0 0 -632.52z"/>
    </clipPath>
    <clipPath id="id8">
     <path d="M2831.73 350.32l616.3 0 0 -324.37 -973.1 0 0 2270.58 973.1 0 0 -324.37 -616.3 0 0 -664.95 489.8 0 0 -324.37 -489.8 0 0 -632.52z"/>
    </clipPath>
   <clipPath id="id9" style="clip-rule:nonzero">
    <path d="M4194.07 25.95l-525.47 0 0 2270.58 356.8 0 0 -853.09 168.67 0c356.81,0 531.97,-197.87 531.97,-561.16l0 -295.17c0,-363.29 -175.16,-561.16 -531.97,-561.16zm0 324.37c113.53,0 175.16,51.9 175.16,214.08l0 340.59c0,162.18 -61.63,214.08 -175.16,214.08l-168.67 0 0 -768.75 168.67 0z"/>
   </clipPath>
    <clipPath id="id10">
     <path d="M4194.07 25.95l-525.47 0 0 2270.58 356.8 0 0 -853.09 168.67 0c356.81,0 531.97,-197.87 531.97,-561.16l0 -295.17c0,-363.29 -175.16,-561.16 -531.97,-561.16zm0 324.37c113.53,0 175.16,51.9 175.16,214.08l0 340.59c0,162.18 -61.63,214.08 -175.16,214.08l-168.67 0 0 -768.75 168.67 0z"/>
    </clipPath>
    <clipPath id="id11">
     <path d="M4194.07 25.95l-525.47 0 0 2270.58 356.8 0 0 -853.09 168.67 0c356.81,0 531.97,-197.87 531.97,-561.16l0 -295.17c0,-363.29 -175.16,-561.16 -531.97,-561.16zm0 324.37c113.53,0 175.16,51.9 175.16,214.08l0 340.59c0,162.18 -61.63,214.08 -175.16,214.08l-168.67 0 0 -768.75 168.67 0z"/>
    </clipPath>
   <clipPath id="id12" style="clip-rule:nonzero">
    <path d="M4891.47 2296.52l943.91 0 0 -324.37 -587.11 0 0 -1946.21 -356.8 0 0 2270.58z"/>
   </clipPath>
    <clipPath id="id13">
     <path d="M4891.47 2296.52l943.91 0 0 -324.37 -587.11 0 0 -1946.21 -356.8 0 0 2270.58z"/>
    </clipPath>
    <clipPath id="id14">
     <path d="M4891.47 2296.52l943.91 0 0 -324.37 -587.11 0 0 -1946.21 -356.8 0 0 2270.58z"/>
    </clipPath>
   <clipPath id="id15" style="clip-rule:nonzero">
    <path d="M5981.34 25.95l0 1728.88c0,363.29 181.65,570.88 531.96,570.88 350.32,0 531.97,-207.59 531.97,-570.88l0 -1728.88 -337.34 0 0 1751.59c0,162.18 -71.36,220.57 -184.89,220.57 -113.53,0 -184.89,-58.39 -184.89,-220.57l0 -1751.59 -356.81 0z"/>
   </clipPath>
    <clipPath id="id16">
     <path d="M5981.34 25.95l0 1728.88c0,363.29 181.65,570.88 531.96,570.88 350.32,0 531.97,-207.59 531.97,-570.88l0 -1728.88 -337.34 0 0 1751.59c0,162.18 -71.36,220.57 -184.89,220.57 -113.53,0 -184.89,-58.39 -184.89,-220.57l0 -1751.59 -356.81 0z"/>
    </clipPath>
    <clipPath id="id17">
     <path d="M5981.34 25.95l0 1728.88c0,363.29 181.65,570.88 531.96,570.88 350.32,0 531.97,-207.59 531.97,-570.88l0 -1728.88 -337.34 0 0 1751.59c0,162.18 -71.36,220.57 -184.89,220.57 -113.53,0 -184.89,-58.39 -184.89,-220.57l0 -1751.59 -356.81 0z"/>
    </clipPath>
   <clipPath id="id18" style="clip-rule:nonzero">
    <path d="M7243.14 570.89c0,648.74 697.39,736.31 697.39,1203.4 0,162.18 -71.36,220.57 -184.89,220.57 -113.53,0 -184.89,-58.39 -184.89,-220.57l0 -178.4 -337.34 0 0 155.7c0,363.29 181.65,570.89 531.97,570.89 350.32,0 531.96,-207.6 531.96,-570.89 0,-648.74 -697.39,-736.31 -697.39,-1203.4 0,-162.18 64.88,-223.82 178.4,-223.82 113.53,0 178.4,61.63 178.4,223.82l0 110.28 337.34 0 0 -87.58c0,-363.29 -178.4,-570.89 -525.48,-570.89 -347.07,0 -525.47,207.6 -525.47,570.89z"/>
   </clipPath>
    <clipPath id="id19">
     <path d="M7243.14 570.89c0,648.74 697.39,736.31 697.39,1203.4 0,162.18 -71.36,220.57 -184.89,220.57 -113.53,0 -184.89,-58.39 -184.89,-220.57l0 -178.4 -337.34 0 0 155.7c0,363.29 181.65,570.89 531.97,570.89 350.32,0 531.96,-207.6 531.96,-570.89 0,-648.74 -697.39,-736.31 -697.39,-1203.4 0,-162.18 64.88,-223.82 178.4,-223.82 113.53,0 178.4,61.63 178.4,223.82l0 110.28 337.34 0 0 -87.58c0,-363.29 -178.4,-570.89 -525.48,-570.89 -347.07,0 -525.47,207.6 -525.47,570.89z"/>
    </clipPath>
    <clipPath id="id20">
     <path d="M7243.14 570.89c0,648.74 697.39,736.31 697.39,1203.4 0,162.18 -71.36,220.57 -184.89,220.57 -113.53,0 -184.89,-58.39 -184.89,-220.57l0 -178.4 -337.34 0 0 155.7c0,363.29 181.65,570.89 531.97,570.89 350.32,0 531.96,-207.6 531.96,-570.89 0,-648.74 -697.39,-736.31 -697.39,-1203.4 0,-162.18 64.88,-223.82 178.4,-223.82 113.53,0 178.4,61.63 178.4,223.82l0 110.28 337.34 0 0 -87.58c0,-363.29 -178.4,-570.89 -525.48,-570.89 -347.07,0 -525.47,207.6 -525.47,570.89z"/>
    </clipPath>
 </defs>
 <g id="Layer_x0020_1">
  <metadata id="CorelCorpID_0Corel-Layer"/>
  <g>
  </g>
  <g style="clip-path:url(#id0)">
   <g>
   </g>
   <g style="clip-path:url(#id1)">
    <image x="-1984.02" y="-6733.03" width="13512.43" height="15452.85" xlink:href="Web Logo 2 SVG_Images\Web Logo 2 SVG_ImgID1.png"/>
   </g>
   <g style="clip-path:url(#id2)">
   </g>
  </g>
  <g style="clip-path:url(#id3)">
   <g>
   </g>
   <g style="clip-path:url(#id4)">
    <image x="-1984.02" y="-6733.03" width="13512.43" height="15452.85" xlink:href="Web Logo 2 SVG_Images\Web Logo 2 SVG_ImgID2.png"/>
   </g>
   <g style="clip-path:url(#id5)">
   </g>
  </g>
  <g style="clip-path:url(#id6)">
   <g>
   </g>
   <g style="clip-path:url(#id7)">
    <image x="-1984.02" y="-6733.03" width="13512.43" height="15452.85" xlink:href="Web Logo 2 SVG_Images\Web Logo 2 SVG_ImgID3.png"/>
   </g>
   <g style="clip-path:url(#id8)">
   </g>
  </g>
  <g style="clip-path:url(#id9)">
   <g>
   </g>
   <g style="clip-path:url(#id10)">
    <image x="-1984.02" y="-6733.03" width="13512.43" height="15452.85" xlink:href="Web Logo 2 SVG_Images\Web Logo 2 SVG_ImgID4.png"/>
   </g>
   <g style="clip-path:url(#id11)">
   </g>
  </g>
  <g style="clip-path:url(#id12)">
   <g>
   </g>
   <g style="clip-path:url(#id13)">
    <image x="-1984.02" y="-6733.03" width="13512.43" height="15452.85" xlink:href="Web Logo 2 SVG_Images\Web Logo 2 SVG_ImgID5.png"/>
   </g>
   <g style="clip-path:url(#id14)">
   </g>
  </g>
  <g style="clip-path:url(#id15)">
   <g>
   </g>
   <g style="clip-path:url(#id16)">
    <image x="-1984.02" y="-6733.03" width="13512.43" height="15452.85" xlink:href="Web Logo 2 SVG_Images\Web Logo 2 SVG_ImgID6.png"/>
   </g>
   <g style="clip-path:url(#id17)">
   </g>
  </g>
  <g style="clip-path:url(#id18)">
   <g>
   </g>
   <g style="clip-path:url(#id19)">
    <image x="-1984.02" y="-6733.03" width="13512.43" height="15452.85" xlink:href="Web Logo 2 SVG_Images\Web Logo 2 SVG_ImgID7.png"/>
   </g>
   <g style="clip-path:url(#id20)">
   </g>
  </g>
 </g>
</svg>
