<?xml version="1.0" encoding="UTF-8"?>
<!DOCTYPE svg PUBLIC "-//W3C//DTD SVG 1.1//EN" "http://www.w3.org/Graphics/SVG/1.1/DTD/svg11.dtd">
<!-- Creator: CorelDRAW 2019 (64-Bit) -->
<svg xmlns="http://www.w3.org/2000/svg" xml:space="preserve" width="4.41528in" height="3.69326in" version="1.1" style="shape-rendering:geometricPrecision; text-rendering:geometricPrecision; image-rendering:optimizeQuality; fill-rule:evenodd; clip-rule:evenodd"
viewBox="0 0 4415.28 3693.26"
 xmlns:xlink="http://www.w3.org/1999/xlink">
 <defs>
  <style type="text/css">
   <![CDATA[
    .fil0 {fill:none}
   ]]>
  </style>
    <clipPath id="id0">
     <path d="M2170.46 2355.76l-512.28 819.01 -110.69 0c-445.85,0 -815.26,-153.39 -1108.15,-460.15 -292.89,-306.75 -439.35,-692.04 -439.35,-1155.86 0,-463.81 144.67,-839.57 434.01,-1127.25 289.35,-287.68 660.5,-431.52 1113.49,-431.52l1800.08 0 -511.68 819.01 -1286.04 0c-217.59,0 -397.83,72.66 -540.13,218.7 -141.7,145.31 -212.86,331.72 -212.86,558.48 0,223.84 71.16,406.57 212.86,547.47 142.3,141.65 322.54,212.1 540.13,212.1l620.6 0z"/>
    </clipPath>
     <clipPath id="id1">
      <path d="M2170.46 2355.76l-512.28 819.01 -110.69 0c-445.85,0 -815.26,-153.39 -1108.15,-460.15 -292.89,-306.75 -439.35,-692.04 -439.35,-1155.86 0,-463.81 144.67,-839.57 434.01,-1127.25 289.35,-287.68 660.5,-431.52 1113.49,-431.52l1800.08 0 -511.68 819.01 -1286.04 0c-217.59,0 -397.83,72.66 -540.13,218.7 -141.7,145.31 -212.86,331.72 -212.86,558.48 0,223.84 71.16,406.57 212.86,547.47 142.3,141.65 322.54,212.1 540.13,212.1l620.6 0z"/>
     </clipPath>
     <clipPath id="id2">
      <path d="M2170.46 2355.76l-512.28 819.01 -110.69 0c-445.85,0 -815.26,-153.39 -1108.15,-460.15 -292.89,-306.75 -439.35,-692.04 -439.35,-1155.86 0,-463.81 144.67,-839.57 434.01,-1127.25 289.35,-287.68 660.5,-431.52 1113.49,-431.52l1800.08 0 -511.68 819.01 -1286.04 0c-217.59,0 -397.83,72.66 -540.13,218.7 -141.7,145.31 -212.86,331.72 -212.86,558.48 0,223.84 71.16,406.57 212.86,547.47 142.3,141.65 322.54,212.1 540.13,212.1l620.6 0z"/>
     </clipPath>
    <clipPath id="id3">
     <path d="M1875.68 3175.07l853.45 0 44.54 518.19 943.46 0 -44.53 -518.19 248.5 0 494.19 -816.79 -812.89 0 -41.9 -487.44 -943.47 0 41.9 487.44 -269.56 0 -513.69 816.79z"/>
    </clipPath>
     <clipPath id="id4">
      <path d="M1875.68 3175.07l853.45 0 44.54 518.19 943.46 0 -44.53 -518.19 248.5 0 494.19 -816.79 -812.89 0 -41.9 -487.44 -943.47 0 41.9 487.44 -269.56 0 -513.69 816.79z"/>
     </clipPath>
     <clipPath id="id5">
      <path d="M1875.68 3175.07l853.45 0 44.54 518.19 943.46 0 -44.53 -518.19 248.5 0 494.19 -816.79 -812.89 0 -41.9 -487.44 -943.47 0 41.9 487.44 -269.56 0 -513.69 816.79z"/>
     </clipPath>
 </defs>
 <g id="Layer_x0020_1">
  <metadata id="CorelCorpID_0Corel-Layer"/>
  <g id="_2989654170464">
   <g>
   </g>
   <g style="clip-path:url(#id0)">
    <g id="_2989654170208">
    </g>
    <g style="clip-path:url(#id1)">
     <image x="-7744.19" y="-970.2" width="13990.81" height="18704.69" xlink:href="Web Logo SVG_Images\Web Logo SVG_ImgID1.png"/>
    </g>
    <g style="clip-path:url(#id2)">
    </g>
   </g>
   <path class="fil0" d="M2170.46 2355.76l-512.28 819.01 -110.69 0c-445.85,0 -815.26,-153.39 -1108.15,-460.15 -292.89,-306.75 -439.35,-692.04 -439.35,-1155.86 0,-463.81 144.67,-839.57 434.01,-1127.25 289.35,-287.68 660.5,-431.52 1113.49,-431.52l1800.08 0 -511.68 819.01 -1286.04 0c-217.59,0 -397.83,72.66 -540.13,218.7 -141.7,145.31 -212.86,331.72 -212.86,558.48 0,223.84 71.16,406.57 212.86,547.47 142.3,141.65 322.54,212.1 540.13,212.1l620.6 0z"/>
   <g>
   </g>
   <g style="clip-path:url(#id3)">
    <g>
    </g>
    <g style="clip-path:url(#id4)">
     <image x="-7744.19" y="-970.2" width="13990.81" height="18704.69" xlink:href="Web Logo SVG_Images\Web Logo SVG_ImgID2.png"/>
    </g>
    <g style="clip-path:url(#id5)">
    </g>
   </g>
   <polygon class="fil0" points="1875.68,3175.07 2729.13,3175.07 2773.67,3693.26 3717.13,3693.26 3672.59,3175.07 3921.09,3175.07 4415.28,2358.28 3602.39,2358.28 3560.49,1870.84 2617.02,1870.84 2658.92,2358.28 2389.36,2358.28 "/>
  </g>
 </g>
</svg>
