<?xml version="1.0"?>
<svg xmlns="http://www.w3.org/2000/svg" xmlns:xlink="http://www.w3.org/1999/xlink" xmlns:svgjs="http://svgjs.com/svgjs" version="1.1" width="512" height="512" x="0" y="0" viewBox="0 0 490 490" style="enable-background:new 0 0 512 512" xml:space="preserve" class=""><g>
<g xmlns="http://www.w3.org/2000/svg">
	<g>
		<path d="M197.972,375.69c10.408-4.046,22.136-10.36,35.238-19.224c-4.207-14.417-11.977-28.004-23.325-39.352    c-14.761-14.762-33.638-23.892-54.038-26.378c-8.73,16.371-13.989,30.43-16.265,42.314    C164.477,338.471,185.536,354.277,197.972,375.69z" fill="#17c8ff" data-original="#000000" style=""/>
		<path d="M121,489.988c38.163-0.258,69.022-31.264,69.022-69.488c0-38.384-31.116-69.5-69.5-69.5    c-38.213,0-69.238,31.009-69.514,69.157c0-0.02,0-0.037,0-0.037s0,0.013,0,0.047C51.008,436,30.1,490,0,490h121V489.988z" fill="#17c8ff" data-original="#000000" style=""/>
	</g>
	<path d="M487.834,1.77l-0.001,0.002l-0.195-0.178l0.002-0.002c-15.428-14.08-146.838,66.886-246.759,175.847   c-33.467,36.843-57.74,68.303-74.26,94.747c21.609,4.291,41.476,14.855,57.406,30.786c12.025,12.025,20.746,26.121,26.178,41.147   c24.256-18.757,52.518-45.183,84.994-80.596C434.604,154.091,503.262,15.851,487.834,1.77z" fill="#17c8ff" data-original="#000000" style=""/>
</g>
<g xmlns="http://www.w3.org/2000/svg">
</g>
<g xmlns="http://www.w3.org/2000/svg">
</g>
<g xmlns="http://www.w3.org/2000/svg">
</g>
<g xmlns="http://www.w3.org/2000/svg">
</g>
<g xmlns="http://www.w3.org/2000/svg">
</g>
<g xmlns="http://www.w3.org/2000/svg">
</g>
<g xmlns="http://www.w3.org/2000/svg">
</g>
<g xmlns="http://www.w3.org/2000/svg">
</g>
<g xmlns="http://www.w3.org/2000/svg">
</g>
<g xmlns="http://www.w3.org/2000/svg">
</g>
<g xmlns="http://www.w3.org/2000/svg">
</g>
<g xmlns="http://www.w3.org/2000/svg">
</g>
<g xmlns="http://www.w3.org/2000/svg">
</g>
<g xmlns="http://www.w3.org/2000/svg">
</g>
<g xmlns="http://www.w3.org/2000/svg">
</g>
</g></svg>
