<?xml version="1.0"?>
<svg xmlns="http://www.w3.org/2000/svg" xmlns:xlink="http://www.w3.org/1999/xlink" xmlns:svgjs="http://svgjs.com/svgjs" version="1.1" width="512" height="512" x="0" y="0" viewBox="0 0 512 512" style="enable-background:new 0 0 512 512" xml:space="preserve"><g><path xmlns="http://www.w3.org/2000/svg" d="m0 0v460h512v-460zm482 430h-452v-400h452zm0 0" fill="#17c8ff" data-original="#000000" style=""/><path xmlns="http://www.w3.org/2000/svg" d="m210 75c0 8.285156-6.714844 15-15 15s-15-6.714844-15-15 6.714844-15 15-15 15 6.714844 15 15zm0 0" fill="#17c8ff" data-original="#000000" style=""/><path xmlns="http://www.w3.org/2000/svg" d="m150 75c0 8.285156-6.714844 15-15 15s-15-6.714844-15-15 6.714844-15 15-15 15 6.714844 15 15zm0 0" fill="#17c8ff" data-original="#000000" style=""/><path xmlns="http://www.w3.org/2000/svg" d="m90 75c0 8.285156-6.714844 15-15 15s-15-6.714844-15-15 6.714844-15 15-15 15 6.714844 15 15zm0 0" fill="#17c8ff" data-original="#000000" style=""/><path xmlns="http://www.w3.org/2000/svg" d="m343 400h30v-20h79v-30h-79v-20h-30v20h-283v30h283zm0 0" fill="#17c8ff" data-original="#000000" style=""/><path xmlns="http://www.w3.org/2000/svg" d="m186 309.441406 158.65625-79.441406-158.65625-79.441406zm30-110.308594 61.652344 30.867188-61.652344 30.867188zm0 0" fill="#17c8ff" data-original="#000000" style=""/></g></svg>
