<?xml version="1.0"?>
<svg xmlns="http://www.w3.org/2000/svg" xmlns:xlink="http://www.w3.org/1999/xlink" xmlns:svgjs="http://svgjs.com/svgjs" version="1.1" width="512" height="512" x="0" y="0" viewBox="0 0 496 496" style="enable-background:new 0 0 512 512" xml:space="preserve" class=""><g><path xmlns="http://www.w3.org/2000/svg" d="m144 400c-39.703125 0-72-32.296875-72-72s32.296875-72 72-72c20.089844 0 38.726562 8.0625 52.496094 22.710938l11.65625-10.949219c-16.578125-17.640625-39.960938-27.761719-64.152344-27.761719-48.519531 0-88 39.480469-88 88s39.480469 88 88 88c23.640625 0 45.824219-9.238281 62.464844-26.015625l-11.359375-11.265625c-13.617188 13.730469-31.769531 21.28125-51.105469 21.28125zm0 0" fill="#000000" data-original="#000000" style=""/><path xmlns="http://www.w3.org/2000/svg" d="m496 358.207031v-60.421875l-29.832031-7.640625c-2.335938-7.558593-5.359375-14.863281-9.007813-21.792969l15.6875-26.480468-42.726562-42.726563-26.480469 15.6875c-6.921875-3.648437-14.226563-6.671875-21.792969-9.007812l-7.640625-29.824219h-60.421875l-7.640625 29.832031c-7.558593 2.335938-14.863281 5.359375-21.800781 9.007813l-14.105469-8.351563 1.152344-14.488281h16.609375v-24c0-22.054688-17.945312-40-40-40h-75.976562l22.214843-80h109.761719v-48h-146.238281l-35.5625 128h-82.199219c-22.054688 0-40 17.945312-40 40v24h16.609375l21.085937 267.144531c1.632813 20.671875 19.144532 36.855469 39.871094 36.855469h132.859375c20.726563 0 38.238281-16.183594 39.871094-36.847656l.71875-9.160156 6.855469 6.855468 26.480468-15.6875c6.921876 3.648438 14.222657 6.671875 21.792969 9.007813l7.648438 29.832031h60.421875l7.640625-29.832031c7.558593-2.335938 14.863281-5.359375 21.792969-9.007813l26.480468 15.6875 42.726563-42.726562-15.6875-26.480469c3.648437-6.921875 6.671875-14.226563 9.007812-21.792969zm-128-54.207031c13.230469 0 24 10.769531 24 24s-10.769531 24-24 24h-8v-48zm-24 48h-16v-48h16zm-160 0v-16h128v16zm-16-5.785156-31.871094-18.214844 31.871094-18.214844zm144-26.214844h-128v-16h128zm-142.089844-304h118.089844v16h-105.910156l-26.683594 96h-16.597656zm-153.910156 152c0-13.230469 10.769531-24 24-24h208c13.230469 0 24 10.769531 24 24v8h-256zm218.351562 289.886719c-.976562 12.402343-11.488281 22.113281-23.917968 22.113281h-132.867188c-12.4375 0-22.941406-9.710938-23.917968-22.121094l-20.992188-265.878906h222.679688l-7.574219 96h-73.890625l-70 40 70 40h67.570312zm218.886719-105.246094-1.214843 4.503906c-2.527344 9.398438-6.230469 18.359375-11.007813 26.648438l-2.335937 4.046875 14.074218 23.746094-25.167968 25.167968-23.746094-14.074218-4.046875 2.335937c-8.289063 4.777344-17.25 8.480469-26.648438 11.007813l-4.503906 1.214843-6.847656 26.761719h-35.578125l-6.847656-26.761719-4.503907-1.214843c-9.398437-2.527344-18.359375-6.230469-26.648437-11.007813l-4.046875-2.335937-23.742188 14.074218-7.730469-7.730468 4.800782-61.023438h110.503906c22.054688 0 40-17.945312 40-40s-17.945312-40-40-40h-104.183594l5.03125-63.742188 15.3125 9.0625 4.046875-2.335937c8.289063-4.777344 17.25-8.480469 26.648438-11.007813l4.503906-1.214843 6.847656-26.761719h35.578125l6.847656 26.761719 4.503907 1.214843c9.398437 2.527344 18.359375 6.230469 26.648437 11.007813l4.046875 2.335937 23.742188-14.074218 25.167969 25.167968-14.070313 23.746094 2.335937 4.046875c4.777344 8.289063 8.480469 17.25 11.007813 26.648438l1.214844 4.503906 26.769531 6.847656v35.578125zm0 0" fill="#000000" data-original="#000000" style=""/><path xmlns="http://www.w3.org/2000/svg" d="m344 232c-24.878906 0-48.480469 9.488281-66.441406 26.703125l11.082031 11.542969c14.960937-14.351563 34.625-22.246094 55.359375-22.246094 44.113281 0 80 35.886719 80 80s-35.886719 80-80 80c-19.992188 0-39.121094-7.40625-53.863281-20.855469l-10.785157 11.832031c17.703126 16.136719 40.65625 25.023438 64.648438 25.023438 52.9375 0 96-43.0625 96-96s-43.0625-96-96-96zm0 0" fill="#000000" data-original="#000000" style=""/></g></svg>
